<?xml version="1.0" standalone="no"?>
<!DOCTYPE svg PUBLIC "-//W3C//DTD SVG 20010904//EN"
 "http://www.w3.org/TR/2001/REC-SVG-20010904/DTD/svg10.dtd">
<svg version="1.0" xmlns="http://www.w3.org/2000/svg"
 width="310.000000pt" height="310.000000pt" viewBox="0 0 310.000000 310.000000"
 preserveAspectRatio="xMidYMid meet">
<metadata>
Created by potrace 1.11, written by Peter Selinger 2001-2013
</metadata>
<g transform="translate(0.000000,310.000000) scale(0.100000,-0.100000)"
fill="#000000" stroke="none">
<path d="M0 1550 l0 -1550 1550 0 1550 0 0 1550 0 1550 -1550 0 -1550 0 0
-1550z m837 934 c57 -7 88 -35 108 -97 9 -28 31 -71 47 -95 17 -24 38 -71 49
-104 10 -33 29 -77 42 -97 13 -20 32 -61 40 -92 9 -31 30 -71 47 -90 16 -19
33 -50 36 -69 8 -42 20 -66 50 -103 13 -16 31 -53 40 -83 8 -30 26 -67 38 -82
33 -39 44 -64 56 -120 6 -27 27 -73 46 -103 18 -29 34 -58 34 -64 0 -5 11 -34
25 -62 23 -50 70 -93 102 -93 7 0 26 26 42 58 16 32 36 64 45 71 9 7 25 43 36
80 13 44 30 77 49 95 23 22 34 47 47 102 9 44 27 89 44 112 15 21 35 63 43 93
9 30 28 66 41 78 27 25 41 60 51 127 4 27 18 53 40 76 25 28 34 48 40 89 8 59
17 81 50 121 12 15 30 58 38 97 20 86 39 116 88 142 34 17 60 19 229 19 113 0
199 -4 211 -10 34 -19 25 -67 -23 -114 -78 -76 -106 -119 -118 -182 -8 -39
-14 -276 -17 -701 l-6 -641 53 -56 c29 -30 62 -58 74 -62 53 -16 77 -82 37
-103 -30 -16 -663 -16 -689 0 -52 33 -19 91 59 104 24 3 52 9 61 11 27 8 82
113 83 159 1 22 7 58 14 79 9 26 14 101 16 220 1 100 7 314 14 476 12 291 9
396 -10 433 -14 25 -32 8 -48 -45 -7 -24 -28 -63 -46 -88 -18 -25 -40 -71 -49
-104 -10 -32 -30 -82 -46 -110 -15 -28 -35 -75 -45 -104 -9 -29 -28 -65 -41
-79 -22 -24 -35 -54 -48 -114 -3 -15 -21 -45 -40 -67 -26 -31 -35 -54 -41 -97
-5 -44 -14 -64 -44 -99 -30 -35 -41 -58 -51 -111 -7 -39 -22 -78 -35 -93 -33
-40 -41 -60 -55 -133 -6 -37 -22 -82 -33 -100 -12 -19 -33 -56 -47 -83 -14
-27 -32 -54 -41 -59 -41 -25 -132 38 -149 104 -5 21 -15 58 -21 81 -6 24 -22
55 -34 70 -13 15 -31 51 -40 80 -10 29 -30 76 -45 104 -16 28 -35 77 -44 109
-9 36 -26 69 -45 89 -20 21 -35 50 -44 92 -16 67 -28 94 -52 114 -8 7 -22 38
-31 69 -9 31 -31 75 -49 99 -22 28 -38 66 -49 112 -9 42 -27 86 -45 110 -17
23 -37 65 -45 94 -9 28 -26 62 -40 75 -13 13 -34 47 -46 77 -23 57 -46 70 -55
32 -11 -48 -11 -1122 0 -1200 10 -66 16 -82 47 -116 20 -22 41 -49 47 -60 8
-15 26 -22 68 -28 106 -12 140 -48 91 -94 -22 -20 -31 -21 -330 -18 -299 3
-308 4 -329 24 -43 43 -6 76 103 90 45 6 58 14 109 65 47 47 59 65 63 101 4
24 7 341 9 706 l2 664 -30 23 c-16 14 -45 36 -63 51 -21 17 -53 30 -84 35 -57
9 -88 32 -88 63 0 28 11 43 38 53 23 9 417 6 489 -3z"/>
</g>
</svg>
